<?xml version="1.0" standalone="no"?>
<!DOCTYPE svg PUBLIC "-//W3C//DTD SVG 20010904//EN"
 "http://www.w3.org/TR/2001/REC-SVG-20010904/DTD/svg10.dtd">
<svg version="1.0" xmlns="http://www.w3.org/2000/svg"
 width="408.000000pt" height="408.000000pt" viewBox="0 0 408.000000 408.000000"
 preserveAspectRatio="xMidYMid meet">

<g transform="translate(0.000000,408.000000) scale(0.100000,-0.100000)"
fill="#000000" stroke="none">
<path d="M0 2040 l0 -2040 2040 0 2040 0 0 2040 0 2040 -2040 0 -2040 0 0
-2040z m2512 1227 c204 -49 362 -119 500 -223 201 -150 331 -343 395 -582 23
-84 26 -118 27 -252 0 -115 -4 -173 -17 -224 -78 -311 -281 -551 -592 -701
-363 -175 -808 -189 -1296 -41 -62 19 -117 32 -121 30 -5 -3 -8 -106 -8 -230
l0 -224 53 -24 c61 -27 80 -46 75 -78 l-3 -23 -275 0 -275 0 -3 32 c-3 30 0
33 62 63 l66 31 0 975 c0 833 -2 974 -14 974 -24 0 -220 -195 -268 -267 -45
-67 -46 -69 -36 -115 13 -55 5 -94 -23 -109 -27 -14 -26 -15 -129 149 l-83
133 44 45 c117 121 373 314 545 411 200 113 448 206 660 247 177 35 174 34
404 31 178 -3 219 -6 312 -28z"/>
<path d="M2030 3140 c-208 -17 -440 -90 -592 -186 l-38 -24 0 -728 c0 -400 4
-732 8 -738 11 -16 88 -48 188 -78 225 -66 568 -87 751 -47 341 75 581 292
680 618 24 80 26 103 26 253 0 148 -3 175 -26 263 -123 450 -507 707 -997 667z"/>
</g>
</svg>
