<svg xmlns="http://www.w3.org/2000/svg" width="48" height="48" class="icon" viewBox="0 0 2000 2000"><path d="M219 1796 c-20 -14 -44 -37 -55 -53 -18 -27 -19 -55 -19 -765 l0 -738 48 -47 47 -48 738 0 737 0 32 23 c17 12 41 37 52 56 21 33 21 43 21 765 l0 732 -50 49 -49 50 -733 0 -733 0 -36 -24z m907 -383 c-13 -47 -28 -311 -19 -353 7 -39 12 -45 36 -48 23 -3 30 2 41 30 8 18 16 78 19 133 7 118 9 126 55 184 58 71 139 91 211 50 45 -25 74 -67 102 -144 18 -53 20 -74 15 -182 -4 -82 -12 -142 -25 -180 -11 -32 -17 -61 -15 -64 2 -4 -20 -43 -48 -86 -65 -96 -130 -143 -239 -172 -89 -25 -132 -26 -218 -6 -144 34 -283 145 -354 282 -43 83 -46 99 -54 281 -3 72 -7 132 -9 132 -3 0 -57 -9 -120 -21 -64 -11 -118 -18 -120 -16 -2 2 5 16 17 30 40 52 172 113 302 141 91 20 121 22 290 24 127 2 138 1 133 -15z M794 1256 l-39 -34 -2 -92 c-1 -52 2 -101 8 -113 29 -53 107 -93 158 -80 40 10 92 54 107 90 19 43 18 147 -1 183 -27 52 -75 80 -137 80 -48 0 -60 -4 -94 -34z"/></svg>